<?xml version="1.0" encoding="UTF-8" standalone="no"?>
<!-- Created with Inkscape (http://www.inkscape.org/) -->

<svg
   xmlns:dc="http://purl.org/dc/elements/1.1/"
   xmlns:cc="http://creativecommons.org/ns#"
   xmlns:rdf="http://www.w3.org/1999/02/22-rdf-syntax-ns#"
   xmlns:svg="http://www.w3.org/2000/svg"
   xmlns="http://www.w3.org/2000/svg"
   xmlns:xlink="http://www.w3.org/1999/xlink"
   xmlns:sodipodi="http://sodipodi.sourceforge.net/DTD/sodipodi-0.dtd"
   xmlns:inkscape="http://www.inkscape.org/namespaces/inkscape"
   version="1.0"
   width="617"
   height="715"
   id="svg2"
   inkscape:version="0.47 r22583"
   sodipodi:docname="Dual_Core_Generic.svg">
  <metadata
     id="metadata31">
    <rdf:RDF>
      <cc:Work
         rdf:about="">
        <dc:format>image/svg+xml</dc:format>
        <dc:type
           rdf:resource="http://purl.org/dc/dcmitype/StillImage" />
      </cc:Work>
    </rdf:RDF>
  </metadata>
  <sodipodi:namedview
     pagecolor="#ffffff"
     bordercolor="#666666"
     borderopacity="1"
     objecttolerance="10"
     gridtolerance="10"
     guidetolerance="10"
     inkscape:pageopacity="0"
     inkscape:pageshadow="2"
     inkscape:window-width="961"
     inkscape:window-height="1015"
     id="namedview29"
     showgrid="false"
     inkscape:zoom="0.93357874"
     inkscape:cx="308.5"
     inkscape:cy="357.5"
     inkscape:window-x="0"
     inkscape:window-y="0"
     inkscape:window-maximized="0"
     inkscape:current-layer="svg2">
    <sodipodi:guide
       position="0,0"
       orientation="0,617"
       id="guide2892" />
    <sodipodi:guide
       position="617,0"
       orientation="-715,0"
       id="guide2894" />
    <sodipodi:guide
       position="617,715"
       orientation="0,-617"
       id="guide2896" />
    <sodipodi:guide
       position="0,715"
       orientation="715,0"
       id="guide2898" />
  </sodipodi:namedview>
  <defs
     id="defs5">
    <inkscape:perspective
       sodipodi:type="inkscape:persp3d"
       inkscape:vp_x="0 : 357.5 : 1"
       inkscape:vp_y="0 : 1000 : 0"
       inkscape:vp_z="617 : 357.5 : 1"
       inkscape:persp3d-origin="308.5 : 238.33333 : 1"
       id="perspective33" />
    <filter
       id="filter3176">
      <feGaussianBlur
         id="feGaussianBlur3178"
         stdDeviation="6"
         inkscape:collect="always" />
    </filter>
    <inkscape:perspective
       id="perspective2875"
       inkscape:persp3d-origin="0.5 : 0.33333333 : 1"
       inkscape:vp_z="1 : 0.5 : 1"
       inkscape:vp_y="0 : 1000 : 0"
       inkscape:vp_x="0 : 0.5 : 1"
       sodipodi:type="inkscape:persp3d" />
  </defs>
  <rect
     width="1198.1836"
     height="1287.2926"
     rx="47.601379"
     ry="47.601376"
     x="35.506161"
     y="139.15387"
     style="fill:#000000;fill-opacity:0.25490196;filter:url(#filter3176)"
     id="rect11125"
     transform="matrix(0.49984252,0,0,0.52978865,-5.528433,-54.801268)" />
  <rect
     width="598.90314"
     height="681.99304"
     rx="23.793194"
     ry="25.218668"
     x="12.219041"
     y="15.707416"
     style="fill:#ffffff;stroke:#000000;stroke-width:6.86130381"
     id="rect5145" />
  <g
     id="g7231"
     transform="matrix(0.5,0,0,0.5,8.3977624,-20.939715)">
    <g
       id="g7222"
       transform="matrix(1,0,0,1.0916619,0,-12.267838)">
      <g
         id="g6195">
        <rect
           id="rect5147"
           style="fill:#ffffff;stroke:#000000;stroke-width:13.33333302"
           y="140.50453"
           x="35.952454"
           ry="47.601379"
           rx="47.601379"
           height="358.75424"
           width="538.78394" />
        <g
           id="g6190">
          <path
             id="path5125"
             d="m 446.35937,648.35334 46.57415,93.14831 46.57416,-93.14831 c 0,0 -23.28708,9.31483 -46.57416,9.31483 -23.28707,0 -46.57415,-9.31483 -46.57415,-9.31483" />
          <use
             xlink:href="#path5125"
             height="1430"
             width="1234"
             y="0"
             x="0"
             id="use5155"
             transform="matrix(1,0,0,-1,-187.80756,1240.7655)" />
          <path
             id="path5157"
             style="fill:none;stroke:#000000;stroke-width:40;stroke-linejoin:round"
             d="m 304.97433,560.0733 0,60.3095 188.00234,0 0,60.3095" />
        </g>
      </g>
      <use
         xlink:href="#g6195"
         height="1430"
         width="1234"
         y="0"
         x="0"
         id="use6200"
         transform="matrix(-1,0,0,1,1208.8068,0)" />
    </g>
    <path
       id="flowRoot12116"
       style="fill:#000000"
       d="m 195.90625,243.0392 6.0625,1.53125 c -1.27088,4.97918 -3.55733,8.77605 -6.85937,11.39063 -3.30212,2.61458 -7.33858,3.92187 -12.10938,3.92187 -4.93752,0 -8.95314,-1.00521 -12.04687,-3.01562 -3.09376,-2.01041 -5.44793,-4.92187 -7.0625,-8.73438 -1.61459,-3.81248 -2.42188,-7.90623 -2.42188,-12.28125 0,-4.7708 0.91145,-8.93226 2.73438,-12.48437 1.8229,-3.55205 4.41665,-6.24996 7.78125,-8.09375 3.36456,-1.84371 7.06768,-2.76558 11.10937,-2.76563 4.5833,5e-5 8.43747,1.16671 11.5625,3.5 3.12496,2.33338 5.30204,5.61462 6.53125,9.84375 l -5.96875,1.40625 c -1.06254,-3.3333 -2.6042,-5.76038 -4.625,-7.28125 -2.02086,-1.52079 -4.56253,-2.28121 -7.625,-2.28125 -3.52085,4e-5 -6.46356,0.84379 -8.82812,2.53125 -2.3646,1.68754 -4.02606,3.95316 -4.98438,6.79688 -0.95834,2.84378 -1.43751,5.77607 -1.4375,8.79687 -1e-5,3.89586 0.5677,7.29689 1.70313,10.20313 1.1354,2.90626 2.90102,5.07813 5.29687,6.51562 2.39581,1.43751 4.98956,2.15626 7.78125,2.15625 3.39581,1e-5 6.2708,-0.97916 8.625,-2.9375 2.35413,-1.95832 3.94788,-4.86457 4.78125,-8.71875 l 0,0 z m 13.5625,16.0625 0,-45.8125 17.28125,0 c 3.04164,5e-5 5.36456,0.14588 6.96875,0.4375 2.24997,0.37505 4.13538,1.08859 5.65625,2.14063 1.5208,1.05212 2.74475,2.52608 3.67188,4.42187 0.92704,1.89587 1.39058,3.9792 1.39062,6.25 -4e-5,3.89586 -1.23962,7.19274 -3.71875,9.89063 -2.4792,2.69793 -6.95836,4.04689 -13.4375,4.04687 l -11.75,0 0,18.625 -6.0625,0 z m 6.0625,-24.03125 11.84375,0 c 3.91664,3e-5 6.69789,-0.72914 8.34375,-2.1875 1.6458,-1.4583 2.46872,-3.51038 2.46875,-6.15625 -3e-5,-1.91663 -0.48441,-3.55725 -1.45312,-4.92187 -0.96879,-1.36455 -2.24483,-2.26559 -3.82813,-2.70313 -1.02086,-0.27079 -2.90628,-0.40621 -5.65625,-0.40625 l -11.71875,0 0,16.375 z m 66.75,-21.78125 6.0625,0 0,26.46875 c -4e-5,4.60418 -0.52087,8.26043 -1.5625,10.96875 -1.04171,2.70834 -2.92191,4.91146 -5.64062,6.60938 -2.71879,1.69791 -6.28649,2.54687 -10.70313,2.54687 -4.29169,0 -7.8021,-0.73958 -10.53125,-2.21875 -2.72918,-1.47916 -4.67709,-3.61978 -5.84375,-6.42187 -1.16667,-2.80208 -1.75001,-6.6302 -1.75,-11.48438 l 0,-26.46875 6.0625,0 0,26.4375 c -10e-6,3.97918 0.36978,6.91147 1.10938,8.79688 0.73957,1.88542 2.0104,3.33855 3.8125,4.35937 1.80206,1.02084 4.00518,1.53126 6.60937,1.53125 4.45831,1e-5 7.63539,-1.01041 9.53125,-3.03125 1.8958,-2.02082 2.84371,-5.90623 2.84375,-11.65625 l 0,-26.4375 z m 66.625,29.75 6.0625,1.53125 c -1.27088,4.97918 -3.55733,8.77605 -6.85937,11.39063 -3.30212,2.61458 -7.33858,3.92187 -12.10938,3.92187 -4.93752,0 -8.95314,-1.00521 -12.04687,-3.01562 -3.09376,-2.01041 -5.44793,-4.92187 -7.0625,-8.73438 -1.61459,-3.81248 -2.42188,-7.90623 -2.42188,-12.28125 0,-4.7708 0.91145,-8.93226 2.73438,-12.48437 1.8229,-3.55205 4.41665,-6.24996 7.78125,-8.09375 3.36456,-1.84371 7.06768,-2.76558 11.10937,-2.76563 4.5833,5e-5 8.43747,1.16671 11.5625,3.5 3.12496,2.33338 5.30204,5.61462 6.53125,9.84375 l -5.96875,1.40625 c -1.06254,-3.3333 -2.6042,-5.76038 -4.625,-7.28125 -2.02086,-1.52079 -4.56253,-2.28121 -7.625,-2.28125 -3.52085,4e-5 -6.46356,0.84379 -8.82812,2.53125 -2.3646,1.68754 -4.02606,3.95316 -4.98438,6.79688 -0.95834,2.84378 -1.43751,5.77607 -1.4375,8.79687 -10e-6,3.89586 0.5677,7.29689 1.70313,10.20313 1.1354,2.90626 2.90102,5.07813 5.29687,6.51562 2.39581,1.43751 4.98956,2.15626 7.78125,2.15625 3.39581,1e-5 6.2708,-0.97916 8.625,-2.9375 2.35413,-1.95832 3.94788,-4.86457 4.78125,-8.71875 l 0,0 z m 10.75,-0.53125 c 0,-6.14581 1.70833,-10.69789 5.125,-13.65625 2.85416,-2.4583 6.33332,-3.68746 10.4375,-3.6875 4.56248,4e-5 8.29164,1.49483 11.1875,4.48438 2.8958,2.98961 4.34372,7.11981 4.34375,12.39062 -3e-5,4.27085 -0.64066,7.63022 -1.92187,10.07813 -1.28129,2.44792 -3.14587,4.34896 -5.59375,5.70312 -2.44794,1.35417 -5.11982,2.03125 -8.01563,2.03125 -4.64585,0 -8.40105,-1.48958 -11.26562,-4.46875 -2.86459,-2.97916 -4.29688,-7.27082 -4.29688,-12.875 l 0,0 z m 5.78125,0 c -10e-6,4.25001 0.92707,7.4323 2.78125,9.54688 1.85415,2.11459 4.18749,3.17188 7,3.17187 2.79165,1e-5 5.11456,-1.06249 6.96875,-3.1875 1.85414,-2.12499 2.78122,-5.36457 2.78125,-9.71875 -3e-5,-4.10414 -0.93232,-7.21352 -2.79687,-9.32812 -1.86461,-2.11456 -4.18232,-3.17185 -6.95313,-3.17188 -2.81251,3e-5 -5.14585,1.05211 -7,3.15625 -1.85418,2.10419 -2.78126,5.28127 -2.78125,9.53125 l 0,0 z m 31.875,16.59375 0,-33.1875 5.0625,0 0,5.03125 c 1.29166,-2.35413 2.48436,-3.90622 3.57813,-4.65625 1.09373,-0.74996 2.29685,-1.12496 3.60937,-1.125 1.89582,4e-5 3.8229,0.6042 5.78125,1.8125 l -1.9375,5.21875 c -1.37502,-0.81247 -2.75002,-1.21872 -4.125,-1.21875 -1.22918,3e-5 -2.33335,0.36982 -3.3125,1.10938 -0.97918,0.73961 -1.67709,1.76565 -2.09375,3.07812 -0.62501,2.00002 -0.93751,4.18752 -0.9375,6.5625 l 0,17.375 -5.625,0 z m 44.15625,-10.6875 5.8125,0.71875 c -0.9167,3.39584 -2.61461,6.03126 -5.09375,7.90625 -2.47919,1.875 -5.64586,2.8125 -9.5,2.8125 -4.85418,0 -8.70313,-1.49479 -11.54687,-4.48437 -2.84376,-2.98958 -4.26563,-7.18228 -4.26563,-12.57813 0,-5.58331 1.4375,-9.91664 4.3125,-13 2.87499,-3.0833 6.60415,-4.62496 11.1875,-4.625 4.43748,4e-5 8.06247,1.51045 10.875,4.53125 2.81247,3.02086 4.21872,7.27086 4.21875,12.75 -3e-5,0.33335 -0.0104,0.83335 -0.0312,1.5 l -24.75,0 c 0.20832,3.64585 1.23957,6.43751 3.09375,8.375 1.85415,1.93751 4.16665,2.90626 6.9375,2.90625 2.06248,1e-5 3.82289,-0.54166 5.28125,-1.625 1.45831,-1.08332 2.61456,-2.81249 3.46875,-5.1875 l 0,0 z M 423,239.32045 l 18.53125,0 c -0.25003,-2.79164 -0.95836,-4.88539 -2.125,-6.28125 -1.79169,-2.16664 -4.1146,-3.24997 -6.96875,-3.25 -2.58335,3e-5 -4.75522,0.86461 -6.51562,2.59375 -1.76043,1.72919 -2.73439,4.04169 -2.92188,6.9375 l 0,0 z m -146.34375,95.6875 c -2.08336,1.77084 -4.08856,3.02084 -6.01562,3.75 -1.92711,0.72917 -3.99481,1.09375 -6.20313,1.09375 -3.64584,0 -6.44792,-0.89062 -8.40625,-2.67187 -1.95834,-1.78125 -2.9375,-4.05729 -2.9375,-6.82813 0,-1.62499 0.36979,-3.10936 1.10938,-4.45312 0.73957,-1.34374 1.70832,-2.42186 2.90625,-3.23438 1.1979,-0.81248 2.54686,-1.42706 4.04687,-1.84375 1.10416,-0.29165 2.77082,-0.5729 5,-0.84375 4.54165,-0.54164 7.88539,-1.18748 10.03125,-1.9375 0.0208,-0.77081 0.0312,-1.26039 0.0312,-1.46875 -3e-5,-2.29164 -0.53127,-3.90622 -1.59375,-4.84375 -1.43752,-1.2708 -3.57294,-1.90622 -6.40625,-1.90625 -2.64585,3e-5 -4.59897,0.46357 -5.85937,1.39063 -1.26043,0.92711 -2.19272,2.56773 -2.79688,4.92187 l -5.5,-0.75 c 0.5,-2.35414 1.32291,-4.25518 2.46875,-5.70312 1.14583,-1.44789 2.80207,-2.56247 4.96875,-3.34375 2.16665,-0.78122 4.67707,-1.17184 7.53125,-1.17188 2.83331,4e-5 5.13539,0.33337 6.90625,1 1.77081,0.6667 3.07289,1.50524 3.90625,2.51563 0.8333,1.01044 1.41664,2.28648 1.75,3.82812 0.18747,0.95836 0.28122,2.68753 0.28125,5.1875 l 0,7.5 c -3e-5,5.22918 0.11976,8.53647 0.35938,9.92188 0.23955,1.38542 0.7135,2.71354 1.42187,3.98437 l -5.875,0 c -0.58336,-1.16666 -0.95836,-2.53124 -1.125,-4.09375 l 0,0 z m -0.46875,-12.5625 c -2.04169,0.83335 -5.10419,1.54168 -9.1875,2.125 -2.31251,0.33335 -3.94793,0.70835 -4.90625,1.125 -0.95834,0.41668 -1.69793,1.02606 -2.21875,1.82813 -0.52084,0.80209 -0.78126,1.69272 -0.78125,2.67187 -10e-6,1.50001 0.5677,2.75001 1.70313,3.75 1.1354,1.00001 2.79686,1.50001 4.98437,1.5 2.16665,1e-5 4.09373,-0.47395 5.78125,-1.42187 1.68748,-0.94791 2.92706,-2.24479 3.71875,-3.89063 0.60414,-1.27082 0.90622,-3.14582 0.90625,-5.625 l 0,-2.0625 z m 14.4375,16.65625 0,-33.1875 5.0625,0 0,4.71875 c 2.43749,-3.6458 5.95832,-5.46871 10.5625,-5.46875 1.99998,4e-5 3.83852,0.35941 5.51563,1.07813 1.67705,0.71878 2.93226,1.66149 3.76562,2.82812 0.8333,1.1667 1.41664,2.55211 1.75,4.15625 0.2083,1.04169 0.31247,2.86461 0.3125,5.46875 l 0,20.40625 -5.625,0 0,-20.1875 c -3e-5,-2.29164 -0.21878,-4.00518 -0.65625,-5.14062 -0.43752,-1.13539 -1.21357,-2.04164 -2.32812,-2.71875 -1.11461,-0.67706 -2.4219,-1.0156 -3.92188,-1.01563 -2.39585,3e-5 -4.46356,0.76045 -6.20312,2.28125 -1.7396,1.52086 -2.60939,4.40627 -2.60938,8.65625 l 0,18.125 -5.625,0 z m 57.15625,0 0,-4.1875 c -2.10419,3.29167 -5.19794,4.9375 -9.28125,4.9375 -2.64585,0 -5.07814,-0.72916 -7.29687,-2.1875 -2.21876,-1.45833 -3.93751,-3.49478 -5.15625,-6.10937 -1.21876,-2.61458 -1.82813,-5.61978 -1.82813,-9.01563 0,-3.31248 0.55208,-6.31768 1.65625,-9.01562 1.10416,-2.69789 2.76041,-4.7656 4.96875,-6.20313 2.20832,-1.43746 4.67707,-2.15621 7.40625,-2.15625 1.99998,4e-5 3.78123,0.42191 5.34375,1.26563 1.56248,0.84378 2.83331,1.94274 3.8125,3.29687 l 0,-16.4375 5.59375,0 0,45.8125 -5.21875,0 z M 330,322.5392 c -10e-6,4.25001 0.89582,7.42709 2.6875,9.53125 1.79165,2.10417 3.90624,3.15626 6.34375,3.15625 2.45831,1e-5 4.54685,-1.0052 6.26563,-3.01562 1.71872,-2.01041 2.57809,-5.07812 2.57812,-9.20313 -3e-5,-4.54164 -0.87502,-7.87497 -2.625,-10 -1.75002,-2.12497 -3.90627,-3.18747 -6.46875,-3.1875 -2.50001,3e-5 -4.58855,1.02086 -6.26562,3.0625 -1.6771,2.04169 -2.51564,5.26044 -2.51563,9.65625 l 0,0 z m -174.15625,96.5625 0,-45.8125 6.0625,0 0,40.40625 22.5625,0 0,5.40625 -28.625,0 z m 54.78125,0 -5.625,0 0,-35.84375 c -1.35418,1.2917 -3.13022,2.58337 -5.32812,3.875 -2.19793,1.2917 -4.17189,2.26045 -5.92188,2.90625 l 0,-5.4375 c 3.14582,-1.47913 5.89582,-3.27079 8.25,-5.375 2.35415,-2.10412 4.02081,-4.14579 5,-6.125 l 3.625,0 0,46 z m 67.15625,-16.0625 6.0625,1.53125 c -1.27088,4.97918 -3.55733,8.77605 -6.85937,11.39063 -3.30212,2.61458 -7.33858,3.92187 -12.10938,3.92187 -4.93752,0 -8.95314,-1.00521 -12.04687,-3.01562 -3.09376,-2.01041 -5.44793,-4.92187 -7.0625,-8.73438 -1.61459,-3.81248 -2.42188,-7.90623 -2.42188,-12.28125 0,-4.7708 0.91145,-8.93226 2.73438,-12.48437 1.8229,-3.55205 4.41665,-6.24996 7.78125,-8.09375 3.36456,-1.84371 7.06768,-2.76558 11.10937,-2.76563 4.5833,5e-5 8.43747,1.16671 11.5625,3.5 3.12496,2.33338 5.30204,5.61462 6.53125,9.84375 l -5.96875,1.40625 c -1.06254,-3.3333 -2.6042,-5.76038 -4.625,-7.28125 -2.02086,-1.52079 -4.56253,-2.28121 -7.625,-2.28125 -3.52085,4e-5 -6.46356,0.84379 -8.82812,2.53125 -2.3646,1.68754 -4.02606,3.95316 -4.98438,6.79688 -0.95834,2.84378 -1.43751,5.77607 -1.4375,8.79687 -1e-5,3.89586 0.5677,7.29689 1.70313,10.20313 1.1354,2.90626 2.90102,5.07813 5.29687,6.51562 2.39581,1.43751 4.98956,2.15626 7.78125,2.15625 3.39581,1e-5 6.2708,-0.97916 8.625,-2.9375 2.35413,-1.95832 3.94788,-4.86457 4.78125,-8.71875 l 0,0 z m 34.5,11.96875 c -2.08336,1.77084 -4.08856,3.02084 -6.01562,3.75 -1.92711,0.72917 -3.99481,1.09375 -6.20313,1.09375 -3.64584,0 -6.44792,-0.89062 -8.40625,-2.67187 -1.95834,-1.78125 -2.9375,-4.05729 -2.9375,-6.82813 0,-1.62499 0.36979,-3.10936 1.10938,-4.45312 0.73957,-1.34374 1.70832,-2.42186 2.90625,-3.23438 1.1979,-0.81248 2.54686,-1.42706 4.04687,-1.84375 1.10416,-0.29165 2.77082,-0.5729 5,-0.84375 4.54165,-0.54164 7.88539,-1.18748 10.03125,-1.9375 0.0208,-0.77081 0.0312,-1.26039 0.0312,-1.46875 -3e-5,-2.29164 -0.53127,-3.90622 -1.59375,-4.84375 -1.43752,-1.2708 -3.57294,-1.90622 -6.40625,-1.90625 -2.64585,3e-5 -4.59897,0.46357 -5.85937,1.39063 -1.26043,0.92711 -2.19272,2.56773 -2.79688,4.92187 l -5.5,-0.75 c 0.5,-2.35414 1.32291,-4.25518 2.46875,-5.70312 1.14583,-1.44789 2.80207,-2.56247 4.96875,-3.34375 2.16665,-0.78122 4.67707,-1.17184 7.53125,-1.17188 2.83331,4e-5 5.13539,0.33337 6.90625,1 1.77081,0.6667 3.07289,1.50524 3.90625,2.51563 0.8333,1.01044 1.41664,2.28648 1.75,3.82812 0.18747,0.95836 0.28122,2.68753 0.28125,5.1875 l 0,7.5 c -3e-5,5.22918 0.11976,8.53647 0.35938,9.92188 0.23955,1.38542 0.7135,2.71354 1.42187,3.98437 l -5.875,0 c -0.58336,-1.16666 -0.95836,-2.53124 -1.125,-4.09375 l 0,0 z m -0.46875,-12.5625 c -2.04169,0.83335 -5.10419,1.54168 -9.1875,2.125 -2.31251,0.33335 -3.94793,0.70835 -4.90625,1.125 -0.95834,0.41668 -1.69793,1.02606 -2.21875,1.82813 -0.52084,0.80209 -0.78126,1.69272 -0.78125,2.67187 -10e-6,1.50001 0.5677,2.75001 1.70313,3.75 1.1354,1.00001 2.79686,1.50001 4.98437,1.5 2.16665,1e-5 4.09373,-0.47395 5.78125,-1.42187 1.68748,-0.94791 2.92706,-2.24479 3.71875,-3.89063 0.60414,-1.27082 0.90622,-3.14582 0.90625,-5.625 l 0,-2.0625 z m 36.09375,4.5 5.53125,0.71875 c -0.6042,3.81251 -2.15107,6.79688 -4.64062,8.95313 -2.48961,2.15625 -5.5469,3.23437 -9.17188,3.23437 -4.54168,0 -8.19272,-1.48437 -10.95312,-4.45312 -2.76043,-2.96875 -4.14063,-7.22395 -4.14063,-12.76563 0,-3.58331 0.59375,-6.71872 1.78125,-9.40625 1.18749,-2.68747 2.99478,-4.70309 5.42188,-6.04687 2.42707,-1.34372 5.06769,-2.01559 7.92187,-2.01563 3.60415,4e-5 6.55206,0.91149 8.84375,2.73438 2.29164,1.82294 3.76039,4.41148 4.40625,7.76562 l -5.46875,0.84375 c -0.52086,-2.22914 -1.44273,-3.90622 -2.76562,-5.03125 -1.32294,-1.12497 -2.9219,-1.68747 -4.79688,-1.6875 -2.83335,3e-5 -5.13543,1.01566 -6.90625,3.04688 -1.77084,2.03127 -2.65626,5.24481 -2.65625,9.64062 -10e-6,4.45835 0.85416,7.69793 2.5625,9.71875 1.70832,2.02084 3.93749,3.03126 6.6875,3.03125 2.20831,1e-5 4.05206,-0.67708 5.53125,-2.03125 1.47914,-1.35416 2.41664,-3.43749 2.8125,-6.25 l 0,0 z m 10.34375,12.15625 0,-45.8125 5.625,0 0,16.4375 c 2.62499,-3.04163 5.93748,-4.56246 9.9375,-4.5625 2.45831,4e-5 4.59373,0.48441 6.40625,1.45313 1.81247,0.96878 3.10935,2.30732 3.89063,4.01562 0.78121,1.70836 1.17184,4.18753 1.17187,7.4375 l 0,21.03125 -5.625,0 0,-21.03125 c -3e-5,-2.81247 -0.6094,-4.85935 -1.82812,-6.14062 -1.21878,-1.28122 -2.94273,-1.92185 -5.17188,-1.92188 -1.66668,3e-5 -3.23439,0.43232 -4.70312,1.29688 -1.46877,0.86461 -2.51564,2.03648 -3.14063,3.51562 -0.62501,1.47919 -0.93751,3.52086 -0.9375,6.125 l 0,18.15625 -5.625,0 z m 58.34375,-10.6875 5.8125,0.71875 c -0.9167,3.39584 -2.61461,6.03126 -5.09375,7.90625 -2.47919,1.875 -5.64586,2.8125 -9.5,2.8125 -4.85418,0 -8.70313,-1.49479 -11.54687,-4.48437 C 393.42187,412.37775 392,408.18505 392,402.7892 c 0,-5.58331 1.4375,-9.91664 4.3125,-13 2.87499,-3.0833 6.60415,-4.62496 11.1875,-4.625 4.43748,4e-5 8.06247,1.51045 10.875,4.53125 2.81247,3.02086 4.21872,7.27086 4.21875,12.75 -3e-5,0.33335 -0.0104,0.83335 -0.0312,1.5 l -24.75,0 c 0.20832,3.64585 1.23957,6.43751 3.09375,8.375 1.85415,1.93751 4.16665,2.90626 6.9375,2.90625 2.06248,1e-5 3.82289,-0.54166 5.28125,-1.625 1.45831,-1.08332 2.61456,-2.81249 3.46875,-5.1875 l 0,0 z m -18.46875,-9.09375 18.53125,0 c -0.25003,-2.79164 -0.95836,-4.88539 -2.125,-6.28125 -1.79169,-2.16664 -4.1146,-3.24997 -6.96875,-3.25 -2.58335,3e-5 -4.75522,0.86461 -6.51562,2.59375 -1.76043,1.72919 -2.73439,4.04169 -2.92188,6.9375 l 0,0 z m 29.125,9.875 5.5625,-0.875 c 0.31249,2.22918 1.18228,3.93751 2.60938,5.125 1.42707,1.18751 3.42186,1.78126 5.98437,1.78125 2.58331,1e-5 4.49998,-0.52603 5.75,-1.57812 1.24998,-1.05208 1.87498,-2.28645 1.875,-3.70313 -2e-5,-1.27082 -0.55211,-2.27082 -1.65625,-3 -0.77085,-0.49998 -2.68752,-1.1354 -5.75,-1.90625 -4.12501,-1.04165 -6.98438,-1.94269 -8.57812,-2.70312 -1.59376,-0.7604 -2.80209,-1.81248 -3.625,-3.15625 -0.82292,-1.34373 -1.23438,-2.8281 -1.23438,-4.45313 0,-1.47914 0.33854,-2.84893 1.01563,-4.10937 0.67707,-1.26039 1.59895,-2.30726 2.76562,-3.14063 0.87499,-0.6458 2.0677,-1.19267 3.57813,-1.64062 1.5104,-0.44789 3.13019,-0.67184 4.85937,-0.67188 2.60415,4e-5 4.8906,0.37504 6.85938,1.125 1.96872,0.75003 3.42184,1.76566 4.35937,3.04688 0.93747,1.28128 1.58331,2.99482 1.9375,5.14062 l -5.5,0.75 c -0.25002,-1.70831 -0.97398,-3.04164 -2.17187,-4 -1.19794,-0.9583 -2.89065,-1.43747 -5.07813,-1.4375 -2.58335,3e-5 -4.42709,0.42711 -5.53125,1.28125 -1.10418,0.8542 -1.65626,1.8542 -1.65625,3 -10e-6,0.72919 0.22916,1.38544 0.6875,1.96875 0.45832,0.60419 1.17707,1.10419 2.15625,1.5 0.56249,0.20836 2.21874,0.68752 4.96875,1.4375 3.97915,1.06252 6.75519,1.93231 8.32813,2.60938 1.57289,0.6771 2.80726,1.66147 3.70312,2.95312 0.8958,1.29168 1.34372,2.89585 1.34375,4.8125 -3e-5,1.87501 -0.5469,3.64063 -1.64062,5.29688 -1.09378,1.65625 -2.67191,2.9375 -4.73438,3.84375 -2.06252,0.90625 -4.39585,1.35937 -7,1.35937 -4.31251,0 -7.59897,-0.89583 -9.85937,-2.6875 -2.26043,-1.79166 -3.70313,-4.44791 -4.32813,-7.96875 l 0,0 z" />
    <use
       xlink:href="#flowRoot12116"
       height="1430"
       width="1234"
       y="0"
       x="0"
       id="use12166"
       transform="translate(598.13425,0)" />
    <g
       id="g7215"
       transform="matrix(1,0,0,0.91593458,0,117.53688)">
      <use
         xlink:href="#rect5147"
         height="1430"
         width="1234"
         y="0"
         x="0"
         id="use5151"
         transform="translate(299.059,601.74689)" />
      <g
         id="g7210">
        <use
           xlink:href="#path5125"
           height="1430"
           width="1234"
           y="0"
           x="0"
           id="use6215"
           transform="translate(111.73464,656.65803)" />
        <use
           xlink:href="#use6215"
           height="1430"
           width="1234"
           y="0"
           x="0"
           id="use6223"
           transform="matrix(1,0,0,-1,0,2494.3487)" />
        <path
           id="path6227"
           style="stroke:#000000;stroke-width:40"
           d="m 604.66816,1157.7036 0,178.9415" />
      </g>
    </g>
    <path
       id="flowRoot12168"
       style="font-size:64px;text-align:center;text-anchor:middle;fill:#000000;font-family:Arial"
       d="m 420.46875,893.66299 0,-45.8125 17.1875,0 c 3.49997,5e-5 6.30726,0.46359 8.42188,1.39063 2.11455,0.92712 3.77079,2.35421 4.96875,4.28125 1.19788,1.92712 1.79683,3.94274 1.79687,6.04687 -4e-5,1.95837 -0.53129,3.80212 -1.59375,5.53125 -1.06253,1.7292 -2.6667,3.12503 -4.8125,4.1875 2.7708,0.81253 4.90101,2.19794 6.39063,4.15625 1.48954,1.95835 2.23433,4.27085 2.23437,6.9375 -4e-5,2.14585 -0.45316,4.14064 -1.35937,5.98438 -0.90629,1.84375 -2.02608,3.26563 -3.35938,4.26562 -1.33337,1 -3.00524,1.75521 -5.01562,2.26563 -2.01045,0.51041 -4.47399,0.76562 -7.39063,0.76562 l -17.46875,0 z m 6.0625,-26.5625 9.90625,0 c 2.68748,3e-5 4.61456,-0.17705 5.78125,-0.53125 1.54164,-0.4583 2.7031,-1.21872 3.48438,-2.28125 0.78121,-1.06247 1.17184,-2.3958 1.17187,-4 -3e-5,-1.5208 -0.36461,-2.85934 -1.09375,-4.01562 -0.7292,-1.15621 -1.77086,-1.94788 -3.125,-2.375 -1.35419,-0.42705 -3.67711,-0.64059 -6.96875,-0.64063 l -9.15625,0 0,13.84375 z m 0,21.15625 11.40625,0 c 1.95831,10e-6 3.33331,-0.0729 4.125,-0.21875 1.39581,-0.24999 2.56247,-0.66666 3.5,-1.25 0.93747,-0.58332 1.7083,-1.43228 2.3125,-2.54687 0.60413,-1.11458 0.90622,-2.40103 0.90625,-3.85938 -3e-5,-1.70832 -0.43753,-3.19269 -1.3125,-4.45312 -0.87503,-1.2604 -2.08857,-2.14582 -3.64062,-2.65625 -1.55211,-0.5104 -3.78649,-0.76561 -6.70313,-0.76563 l -10.59375,0 0,15.75 z m 57.96875,5.40625 0,-4.875 c -2.58336,3.75 -6.09377,5.625 -10.53125,5.625 -1.95835,0 -3.78647,-0.375 -5.48437,-1.125 -1.69793,-0.75 -2.95835,-1.6927 -3.78125,-2.82812 -0.82293,-1.13541 -1.40105,-2.52604 -1.73438,-4.17188 -0.22917,-1.10416 -0.34375,-2.85415 -0.34375,-5.25 l 0,-20.5625 5.625,0 0,18.40625 c -10e-6,2.93751 0.11457,4.91668 0.34375,5.9375 0.35416,1.47918 1.10416,2.64063 2.25,3.48438 1.14582,0.84375 2.56249,1.26563 4.25,1.26562 1.68748,10e-6 3.27081,-0.43228 4.75,-1.29687 1.47914,-0.86458 2.52602,-2.04166 3.14063,-3.53125 0.61455,-1.48958 0.92184,-3.65103 0.92187,-6.48438 l 0,-17.78125 5.625,0 0,33.1875 -5.03125,0 z m 11.625,-9.90625 5.5625,-0.875 c 0.31249,2.22918 1.18228,3.93751 2.60938,5.125 1.42707,1.18751 3.42186,1.78126 5.98437,1.78125 2.58331,10e-6 4.49998,-0.52603 5.75,-1.57812 1.24998,-1.05208 1.87498,-2.28645 1.875,-3.70313 -2e-5,-1.27082 -0.55211,-2.27082 -1.65625,-3 -0.77085,-0.49998 -2.68752,-1.1354 -5.75,-1.90625 -4.12501,-1.04165 -6.98438,-1.94269 -8.57812,-2.70312 -1.59376,-0.7604 -2.80209,-1.81248 -3.625,-3.15625 -0.82292,-1.34373 -1.23438,-2.8281 -1.23438,-4.45313 0,-1.47914 0.33854,-2.84893 1.01563,-4.10937 0.67707,-1.26039 1.59895,-2.30726 2.76562,-3.14063 0.87499,-0.6458 2.0677,-1.19267 3.57813,-1.64062 1.5104,-0.44789 3.13019,-0.67184 4.85937,-0.67188 2.60415,4e-5 4.8906,0.37504 6.85938,1.125 1.96872,0.75003 3.42184,1.76566 4.35937,3.04688 0.93747,1.28128 1.58331,2.99482 1.9375,5.14062 l -5.5,0.75 c -0.25002,-1.70831 -0.97398,-3.04164 -2.17187,-4 -1.19794,-0.9583 -2.89065,-1.43747 -5.07813,-1.4375 -2.58335,3e-5 -4.42709,0.42711 -5.53125,1.28125 -1.10418,0.8542 -1.65626,1.8542 -1.65625,3 -10e-6,0.72919 0.22916,1.38544 0.6875,1.96875 0.45832,0.60419 1.17707,1.10419 2.15625,1.5 0.56249,0.20836 2.21874,0.68752 4.96875,1.4375 3.97915,1.06252 6.75519,1.93231 8.32813,2.60938 1.57289,0.6771 2.80726,1.66147 3.70312,2.95312 0.8958,1.29168 1.34372,2.89585 1.34375,4.8125 -3e-5,1.87501 -0.5469,3.64063 -1.64062,5.29688 -1.09378,1.65625 -2.67191,2.9375 -4.73438,3.84375 -2.06252,0.90625 -4.39585,1.35937 -7,1.35937 -4.31251,0 -7.59897,-0.89583 -9.85937,-2.6875 -2.26043,-1.79166 -3.70313,-4.44791 -4.32813,-7.96875 l 0,0 z m 53.75,9.90625 0,-45.8125 6.0625,0 0,45.8125 -6.0625,0 z m 16,0 0,-33.1875 5.0625,0 0,4.71875 c 2.43749,-3.6458 5.95832,-5.46871 10.5625,-5.46875 1.99998,4e-5 3.83852,0.35941 5.51563,1.07813 1.67705,0.71878 2.93226,1.66149 3.76562,2.82812 0.8333,1.1667 1.41664,2.55211 1.75,4.15625 0.2083,1.04169 0.31247,2.86461 0.3125,5.46875 l 0,20.40625 -5.625,0 0,-20.1875 c -3e-5,-2.29164 -0.21878,-4.00518 -0.65625,-5.14062 -0.43752,-1.13539 -1.21357,-2.04164 -2.32812,-2.71875 -1.11461,-0.67706 -2.4219,-1.0156 -3.92188,-1.01563 -2.39585,3e-5 -4.46356,0.76045 -6.20312,2.28125 -1.7396,1.52086 -2.60939,4.40627 -2.60938,8.65625 l 0,18.125 -5.625,0 z m 47.90625,-5.03125 0.8125,4.96875 c -1.58335,0.33334 -3.00001,0.5 -4.25,0.5 -2.04168,0 -3.62501,-0.32291 -4.75,-0.96875 -1.12501,-0.64583 -1.91667,-1.49479 -2.375,-2.54687 -0.45834,-1.05208 -0.68751,-3.26562 -0.6875,-6.64063 l 0,-19.09375 -4.125,0 0,-4.375 4.125,0 0,-8.21875 5.59375,-3.375 0,11.59375 5.65625,0 0,4.375 -5.65625,0 0,19.40625 c -10e-6,1.60418 0.0989,2.63543 0.29688,3.09375 0.1979,0.45834 0.52082,0.82292 0.96875,1.09375 0.4479,0.27084 1.08852,0.40626 1.92187,0.40625 0.62499,10e-6 1.4479,-0.0729 2.46875,-0.21875 l 0,0 z m 28.1875,-5.65625 5.8125,0.71875 c -0.9167,3.39584 -2.61461,6.03126 -5.09375,7.90625 -2.47919,1.875 -5.64586,2.8125 -9.5,2.8125 -4.85418,0 -8.70313,-1.49479 -11.54687,-4.48437 -2.84376,-2.98958 -4.26563,-7.18228 -4.26563,-12.57813 0,-5.58331 1.4375,-9.91664 4.3125,-13 2.87499,-3.0833 6.60415,-4.62496 11.1875,-4.625 4.43748,4e-5 8.06247,1.51045 10.875,4.53125 2.81247,3.02086 4.21872,7.27086 4.21875,12.75 -3e-5,0.33335 -0.0104,0.83335 -0.0312,1.5 l -24.75,0 c 0.20832,3.64585 1.23957,6.43751 3.09375,8.375 1.85415,1.93751 4.16665,2.90626 6.9375,2.90625 2.06248,10e-6 3.82289,-0.54166 5.28125,-1.625 1.45831,-1.08332 2.61456,-2.81249 3.46875,-5.1875 l 0,0 z M 623.5,873.88174 l 18.53125,0 c -0.25003,-2.79164 -0.95836,-4.88539 -2.125,-6.28125 -1.79169,-2.16664 -4.1146,-3.24997 -6.96875,-3.25 -2.58335,3e-5 -4.75522,0.86461 -6.51562,2.59375 -1.76043,1.72919 -2.73439,4.04169 -2.92188,6.9375 l 0,0 z m 31.3125,19.78125 0,-33.1875 5.0625,0 0,5.03125 c 1.29166,-2.35413 2.48436,-3.90622 3.57813,-4.65625 1.09373,-0.74996 2.29685,-1.12496 3.60937,-1.125 1.89582,4e-5 3.8229,0.6042 5.78125,1.8125 l -1.9375,5.21875 c -1.37502,-0.81247 -2.75002,-1.21872 -4.125,-1.21875 -1.22918,3e-5 -2.33335,0.36982 -3.3125,1.10938 -0.97918,0.73961 -1.67709,1.76565 -2.09375,3.07812 -0.62501,2.00002 -0.93751,4.18752 -0.9375,6.5625 l 0,17.375 -5.625,0 z m 22.78125,0 0,-28.8125 -4.96875,0 0,-4.375 4.96875,0 0,-3.53125 c -10e-6,-2.22913 0.19791,-3.88537 0.59375,-4.96875 0.54166,-1.45829 1.49478,-2.64058 2.85938,-3.54687 1.36457,-0.90621 3.27602,-1.35933 5.73437,-1.35938 1.58332,5e-5 3.33332,0.18755 5.25,0.5625 l -0.84375,4.90625 c -1.16668,-0.20829 -2.27085,-0.31246 -3.3125,-0.3125 -1.70835,4e-5 -2.91668,0.36463 -3.625,1.09375 -0.70834,0.72921 -1.06251,2.09379 -1.0625,4.09375 l 0,3.0625 6.46875,0 0,4.375 -6.46875,0 0,28.8125 -5.59375,0 z m 38.0625,-4.09375 c -2.08336,1.77084 -4.08856,3.02084 -6.01562,3.75 -1.92711,0.72917 -3.99481,1.09375 -6.20313,1.09375 -3.64584,0 -6.44792,-0.89062 -8.40625,-2.67187 -1.95834,-1.78125 -2.9375,-4.05729 -2.9375,-6.82813 0,-1.62499 0.36979,-3.10936 1.10938,-4.45312 0.73957,-1.34374 1.70832,-2.42186 2.90625,-3.23438 1.1979,-0.81248 2.54686,-1.42706 4.04687,-1.84375 1.10416,-0.29165 2.77082,-0.5729 5,-0.84375 4.54165,-0.54164 7.88539,-1.18748 10.03125,-1.9375 0.0208,-0.77081 0.0312,-1.26039 0.0312,-1.46875 -3e-5,-2.29164 -0.53127,-3.90622 -1.59375,-4.84375 -1.43752,-1.2708 -3.57294,-1.90622 -6.40625,-1.90625 -2.64585,3e-5 -4.59897,0.46357 -5.85937,1.39063 -1.26043,0.92711 -2.19272,2.56773 -2.79688,4.92187 l -5.5,-0.75 c 0.5,-2.35414 1.32291,-4.25518 2.46875,-5.70312 1.14583,-1.44789 2.80207,-2.56247 4.96875,-3.34375 2.16665,-0.78122 4.67707,-1.17184 7.53125,-1.17188 2.83331,4e-5 5.13539,0.33337 6.90625,1 1.77081,0.6667 3.07289,1.50524 3.90625,2.51563 0.8333,1.01044 1.41664,2.28648 1.75,3.82812 0.18747,0.95836 0.28122,2.68753 0.28125,5.1875 l 0,7.5 c -3e-5,5.22918 0.11976,8.53647 0.35938,9.92188 0.23955,1.38542 0.7135,2.71354 1.42187,3.98437 l -5.875,0 c -0.58336,-1.16666 -0.95836,-2.53124 -1.125,-4.09375 l 0,0 z m -0.46875,-12.5625 c -2.04169,0.83335 -5.10419,1.54168 -9.1875,2.125 -2.31251,0.33335 -3.94793,0.70835 -4.90625,1.125 -0.95834,0.41668 -1.69793,1.02606 -2.21875,1.82813 -0.52084,0.80209 -0.78126,1.69272 -0.78125,2.67187 -10e-6,1.50001 0.5677,2.75001 1.70313,3.75 1.1354,1.00001 2.79686,1.50001 4.98437,1.5 2.16665,10e-6 4.09373,-0.47395 5.78125,-1.42187 1.68748,-0.94791 2.92706,-2.24479 3.71875,-3.89063 0.60414,-1.27082 0.90622,-3.14582 0.90625,-5.625 l 0,-2.0625 z m 36.09375,4.5 5.53125,0.71875 c -0.6042,3.81251 -2.15107,6.79688 -4.64062,8.95313 -2.48961,2.15625 -5.5469,3.23437 -9.17188,3.23437 -4.54168,0 -8.19272,-1.48437 -10.95312,-4.45312 -2.76043,-2.96875 -4.14063,-7.22395 -4.14063,-12.76563 0,-3.58331 0.59375,-6.71872 1.78125,-9.40625 1.18749,-2.68747 2.99478,-4.70309 5.42188,-6.04687 2.42707,-1.34372 5.06769,-2.01559 7.92187,-2.01563 3.60415,4e-5 6.55206,0.91149 8.84375,2.73438 2.29164,1.82294 3.76039,4.41148 4.40625,7.76562 l -5.46875,0.84375 c -0.52086,-2.22914 -1.44273,-3.90622 -2.76562,-5.03125 -1.32294,-1.12497 -2.9219,-1.68747 -4.79688,-1.6875 -2.83335,3e-5 -5.13543,1.01566 -6.90625,3.04688 -1.77084,2.03127 -2.65626,5.24481 -2.65625,9.64062 -10e-6,4.45835 0.85416,7.69793 2.5625,9.71875 1.70832,2.02084 3.93749,3.03126 6.6875,3.03125 2.20831,10e-6 4.05206,-0.67708 5.53125,-2.03125 1.47914,-1.35416 2.41664,-3.43749 2.8125,-6.25 l 0,0 z m 33.0625,1.46875 5.8125,0.71875 c -0.9167,3.39584 -2.61461,6.03126 -5.09375,7.90625 -2.47919,1.875 -5.64586,2.8125 -9.5,2.8125 -4.85418,0 -8.70313,-1.49479 -11.54687,-4.48437 -2.84376,-2.98958 -4.26563,-7.18228 -4.26563,-12.57813 0,-5.58331 1.4375,-9.91664 4.3125,-13 2.87499,-3.0833 6.60415,-4.62496 11.1875,-4.625 4.43748,4e-5 8.06247,1.51045 10.875,4.53125 2.81247,3.02086 4.21872,7.27086 4.21875,12.75 -3e-5,0.33335 -0.0104,0.83335 -0.0312,1.5 l -24.75,0 c 0.20832,3.64585 1.23957,6.43751 3.09375,8.375 1.85415,1.93751 4.16665,2.90626 6.9375,2.90625 2.06248,10e-6 3.82289,-0.54166 5.28125,-1.625 1.45831,-1.08332 2.61456,-2.81249 3.46875,-5.1875 l 0,0 z m -18.46875,-9.09375 18.53125,0 c -0.25003,-2.79164 -0.95836,-4.88539 -2.125,-6.28125 -1.79169,-2.16664 -4.1146,-3.24997 -6.96875,-3.25 -2.58335,3e-5 -4.75522,0.86461 -6.51562,2.59375 -1.76043,1.72919 -2.73439,4.04169 -2.92188,6.9375 l 0,0 z m -189.03125,95.6875 c -2.08336,1.77084 -4.08856,3.02084 -6.01562,3.75 -1.92711,0.72917 -3.99481,1.09375 -6.20313,1.09375 -3.64584,0 -6.44792,-0.89062 -8.40625,-2.67187 -1.95834,-1.78125 -2.9375,-4.05729 -2.9375,-6.82813 0,-1.62499 0.36979,-3.10936 1.10938,-4.45312 0.73957,-1.34374 1.70832,-2.42186 2.90625,-3.23438 1.1979,-0.81248 2.54686,-1.42706 4.04687,-1.84375 1.10416,-0.29165 2.77082,-0.5729 5,-0.84375 4.54165,-0.54164 7.88539,-1.18748 10.03125,-1.9375 0.0208,-0.77081 0.0312,-1.26039 0.0312,-1.46875 -3e-5,-2.29164 -0.53127,-3.90622 -1.59375,-4.84375 -1.43752,-1.2708 -3.57294,-1.90622 -6.40625,-1.90625 -2.64585,3e-5 -4.59897,0.46357 -5.85937,1.39063 -1.26043,0.92711 -2.19272,2.56773 -2.79688,4.92187 l -5.5,-0.75 c 0.5,-2.35414 1.32291,-4.25518 2.46875,-5.70312 1.14583,-1.44789 2.80207,-2.56247 4.96875,-3.34375 2.16665,-0.78122 4.67707,-1.17184 7.53125,-1.17188 2.83331,4e-5 5.13539,0.33337 6.90625,1 1.77081,0.6667 3.07289,1.50524 3.90625,2.51563 0.8333,1.01044 1.41664,2.28648 1.75,3.82812 0.18747,0.95836 0.28122,2.68753 0.28125,5.1875 l 0,7.5 c -3e-5,5.22918 0.11976,8.53647 0.35938,9.92188 0.23955,1.38542 0.7135,2.71354 1.42187,3.98437 l -5.875,0 c -0.58336,-1.16666 -0.95836,-2.53124 -1.125,-4.09375 l 0,0 z m -0.46875,-12.5625 c -2.04169,0.83335 -5.10419,1.54168 -9.1875,2.125 -2.31251,0.33335 -3.94793,0.70835 -4.90625,1.125 -0.95834,0.41668 -1.69793,1.02606 -2.21875,1.82813 -0.52084,0.80209 -0.78126,1.69272 -0.78125,2.67187 -10e-6,1.50001 0.5677,2.75001 1.70313,3.75 1.1354,1.00001 2.79686,1.50001 4.98437,1.5 2.16665,10e-6 4.09373,-0.47395 5.78125,-1.42187 1.68748,-0.94791 2.92706,-2.24479 3.71875,-3.89063 0.60414,-1.27082 0.90622,-3.14582 0.90625,-5.625 l 0,-2.0625 z m 14.4375,16.65625 0,-33.1875 5.0625,0 0,4.71875 c 2.43749,-3.6458 5.95832,-5.46871 10.5625,-5.46875 1.99998,4e-5 3.83852,0.35941 5.51563,1.07813 1.67705,0.71878 2.93226,1.66149 3.76562,2.82812 0.8333,1.1667 1.41664,2.55211 1.75,4.15625 0.2083,1.04169 0.31247,2.86461 0.3125,5.46875 l 0,20.40625 -5.625,0 0,-20.1875 c -3e-5,-2.29164 -0.21878,-4.00518 -0.65625,-5.14062 -0.43752,-1.13539 -1.21357,-2.04164 -2.32812,-2.71875 -1.11461,-0.67706 -2.4219,-1.0156 -3.92188,-1.01563 -2.39585,3e-5 -4.46356,0.76045 -6.20312,2.28125 -1.7396,1.52086 -2.60939,4.40627 -2.60938,8.65625 l 0,18.125 -5.625,0 z m 57.15625,0 0,-4.1875 c -2.10419,3.29167 -5.19794,4.9375 -9.28125,4.9375 -2.64585,0 -5.07814,-0.72916 -7.29687,-2.1875 -2.21876,-1.45833 -3.93751,-3.49478 -5.15625,-6.10937 -1.21876,-2.61458 -1.82813,-5.61978 -1.82813,-9.01563 0,-3.31248 0.55208,-6.31768 1.65625,-9.01562 1.10416,-2.69789 2.76041,-4.7656 4.96875,-6.20313 2.20832,-1.43746 4.67707,-2.15621 7.40625,-2.15625 1.99998,4e-5 3.78123,0.42191 5.34375,1.26563 1.56248,0.84378 2.83331,1.94274 3.8125,3.29687 l 0,-16.4375 5.59375,0 0,45.8125 -5.21875,0 z m -17.78125,-16.5625 c -10e-6,4.25001 0.89582,7.42709 2.6875,9.53125 1.79165,2.10417 3.90624,3.15626 6.34375,3.15625 2.45831,10e-6 4.54685,-1.0052 6.26563,-3.01562 1.71872,-2.01041 2.57809,-5.07812 2.57812,-9.20313 -3e-5,-4.54164 -0.87502,-7.87497 -2.625,-10 -1.75002,-2.12497 -3.90627,-3.18747 -6.46875,-3.1875 -2.50001,3e-5 -4.58855,1.02086 -6.26562,3.0625 -1.6771,2.04169 -2.51564,5.26044 -2.51563,9.65625 l 0,0 z m -174.15625,96.56251 0,-45.8125 6.0625,0 0,40.4063 22.5625,0 0,5.4062 -28.625,0 z m 63.15625,-5.4062 0,5.4062 -30.28125,0 c -0.0417,-1.3542 0.17708,-2.6562 0.65625,-3.9062 0.77083,-2.0625 2.0052,-4.0938 3.70313,-6.0938 1.6979,-2 4.15103,-4.3125 7.35937,-6.9375 4.97915,-4.0833 8.34373,-7.3177 10.09375,-9.7031 1.74997,-2.3854 2.62497,-4.6406 2.625,-6.7657 -3e-5,-2.2291 -0.7969,-4.1093 -2.39062,-5.6406 -1.59378,-1.5312 -3.6719,-2.2968 -6.23438,-2.2969 -2.70835,10e-5 -4.87501,0.8126 -6.5,2.4375 -1.62501,1.6251 -2.44793,3.8751 -2.46875,6.75 l -5.78125,-0.5937 c 0.39583,-4.3125 1.88541,-7.5989 4.46875,-9.8594 2.58332,-2.2604 6.05207,-3.3906 10.40625,-3.3906 4.39581,0 7.87497,1.2188 10.4375,3.6562 2.56247,2.4376 3.84372,5.4584 3.84375,9.0625 -3e-5,1.8334 -0.37503,3.6355 -1.125,5.4063 -0.75003,1.7708 -1.99482,3.6354 -3.73437,5.5937 -1.73961,1.9584 -4.63024,4.6459 -8.67188,8.0626 -3.37502,2.8333 -5.54168,4.7552 -6.5,5.7656 -0.95834,1.0104 -1.75001,2.026 -2.375,3.0469 l 22.46875,0 z m 58.78125,-10.6563 6.0625,1.5313 c -1.27088,4.9791 -3.55733,8.776 -6.85937,11.3906 -3.30212,2.6146 -7.33858,3.9219 -12.10938,3.9219 -4.93752,0 -8.95314,-1.0053 -12.04687,-3.0157 -3.09376,-2.0104 -5.44793,-4.9218 -7.0625,-8.7343 -1.61459,-3.8125 -2.42188,-7.9063 -2.42188,-12.2813 0,-4.7708 0.91145,-8.9323 2.73438,-12.4844 1.8229,-3.552 4.41665,-6.2499 7.78125,-8.0937 3.36456,-1.8437 7.06768,-2.7656 11.10937,-2.7657 4.5833,10e-5 8.43747,1.1667 11.5625,3.5 3.12496,2.3334 5.30204,5.6147 6.53125,9.8438 l -5.96875,1.4062 c -1.06254,-3.3333 -2.6042,-5.7603 -4.625,-7.2812 -2.02086,-1.5208 -4.56253,-2.2812 -7.625,-2.2813 -3.52085,10e-5 -6.46356,0.8438 -8.82812,2.5313 -2.3646,1.6875 -4.02606,3.9531 -4.98438,6.7969 -0.95834,2.8437 -1.43751,5.776 -1.4375,8.7968 -10e-6,3.8959 0.5677,7.2969 1.70313,10.2032 1.1354,2.9062 2.90102,5.0781 5.29687,6.5156 2.39581,1.4375 4.98956,2.1563 7.78125,2.1563 3.39581,0 6.2708,-0.9792 8.625,-2.9375 2.35413,-1.9584 3.94788,-4.8646 4.78125,-8.7188 l 0,0 z m 34.5,11.9688 c -2.08336,1.7708 -4.08856,3.0208 -6.01562,3.75 -1.92711,0.7291 -3.99481,1.0937 -6.20313,1.0937 -3.64584,0 -6.44792,-0.8906 -8.40625,-2.6719 -1.95834,-1.7812 -2.9375,-4.0573 -2.9375,-6.8281 0,-1.625 0.36979,-3.1094 1.10938,-4.4531 0.73957,-1.3438 1.70832,-2.4219 2.90625,-3.2344 1.1979,-0.8125 2.54686,-1.4271 4.04687,-1.8438 1.10416,-0.2916 2.77082,-0.5729 5,-0.8437 4.54165,-0.5417 7.88539,-1.1875 10.03125,-1.9375 0.0208,-0.7708 0.0312,-1.2604 0.0312,-1.4688 -3e-5,-2.2916 -0.53127,-3.9062 -1.59375,-4.8437 -1.43752,-1.2708 -3.57294,-1.9062 -6.40625,-1.9063 -2.64585,1e-4 -4.59897,0.4636 -5.85937,1.3907 -1.26043,0.9271 -2.19272,2.5677 -2.79688,4.9218 l -5.5,-0.75 c 0.5,-2.3541 1.32291,-4.2551 2.46875,-5.7031 1.14583,-1.4479 2.80207,-2.5625 4.96875,-3.3437 2.16665,-0.7813 4.67707,-1.1719 7.53125,-1.1719 2.83331,0 5.13539,0.3334 6.90625,1 1.77081,0.6667 3.07289,1.5052 3.90625,2.5156 0.8333,1.0105 1.41664,2.2865 1.75,3.8281 0.18747,0.9584 0.28122,2.6876 0.28125,5.1875 l 0,7.5001 c -3e-5,5.2291 0.11976,8.5364 0.35938,9.9218 0.23955,1.3854 0.7135,2.7136 1.42187,3.9844 l -5.875,0 c -0.58336,-1.1667 -0.95836,-2.5312 -1.125,-4.0937 l 0,0 z M 612,1037.0067 c -2.04169,0.8334 -5.10419,1.5417 -9.1875,2.1251 -2.31251,0.3333 -3.94793,0.7083 -4.90625,1.125 -0.95834,0.4166 -1.69793,1.026 -2.21875,1.8281 -0.52084,0.8021 -0.78126,1.6927 -0.78125,2.6719 -10e-6,1.5 0.5677,2.75 1.70313,3.75 1.1354,1 2.79686,1.5 4.98437,1.5 2.16665,0 4.09373,-0.474 5.78125,-1.4219 1.68748,-0.9479 2.92706,-2.2448 3.71875,-3.8906 0.60414,-1.2709 0.90622,-3.1459 0.90625,-5.625 l 0,-2.0626 z m 36.09375,4.5001 5.53125,0.7187 c -0.6042,3.8125 -2.15107,6.7969 -4.64062,8.9531 -2.48961,2.1563 -5.5469,3.2344 -9.17188,3.2344 -4.54168,0 -8.19272,-1.4844 -10.95312,-4.4531 -2.76043,-2.9688 -4.14063,-7.224 -4.14063,-12.7657 0,-3.5833 0.59375,-6.7187 1.78125,-9.4062 1.18749,-2.6875 2.99478,-4.7031 5.42188,-6.0469 2.42707,-1.3437 5.06769,-2.0156 7.92187,-2.0156 3.60415,0 6.55206,0.9115 8.84375,2.7344 2.29164,1.8229 3.76039,4.4114 4.40625,7.7656 l -5.46875,0.8437 c -0.52086,-2.2291 -1.44273,-3.9062 -2.76562,-5.0312 -1.32294,-1.125 -2.9219,-1.6875 -4.79688,-1.6875 -2.83335,0 -5.13543,1.0156 -6.90625,3.0469 -1.77084,2.0312 -2.65626,5.2448 -2.65625,9.6406 -10e-6,4.4583 0.85416,7.6979 2.5625,9.7188 1.70832,2.0208 3.93749,3.0312 6.6875,3.0312 2.20831,0 4.05206,-0.6771 5.53125,-2.0312 1.47914,-1.3542 2.41664,-3.4375 2.8125,-6.25 l 0,0 z m 10.34375,12.1562 0,-45.8125 5.625,0 0,16.4375 c 2.62499,-3.0416 5.93748,-4.5625 9.9375,-4.5625 2.45831,0 4.59373,0.4844 6.40625,1.4531 1.81247,0.9688 3.10935,2.3073 3.89063,4.0156 0.78121,1.7084 1.17184,4.1876 1.17187,7.4375 l 0,21.0313 -5.625,0 0,-21.0313 c -3e-5,-2.8124 -0.6094,-4.8593 -1.82812,-6.1406 -1.21878,-1.2812 -2.94273,-1.9218 -5.17188,-1.9219 -1.66668,1e-4 -3.23439,0.4324 -4.70312,1.2969 -1.46877,0.8646 -2.51564,2.0365 -3.14063,3.5156 -0.62501,1.4792 -0.93751,3.5209 -0.9375,6.125 l 0,18.1563 -5.625,0 z m 58.34375,-10.6875 5.8125,0.7188 c -0.9167,3.3958 -2.61461,6.0312 -5.09375,7.9062 -2.47919,1.875 -5.64586,2.8125 -9.5,2.8125 -4.85418,0 -8.70313,-1.4948 -11.54687,-4.4844 -2.84376,-2.9895 -4.26563,-7.1823 -4.26563,-12.5781 0,-5.5833 1.4375,-9.9167 4.3125,-13 2.87499,-3.0833 6.60415,-4.625 11.1875,-4.625 4.43748,0 8.06247,1.5104 10.875,4.5312 2.81247,3.0209 4.21872,7.2709 4.21875,12.75 -3e-5,0.3334 -0.0104,0.8334 -0.0312,1.5 l -24.75,0 c 0.20832,3.6459 1.23957,6.4376 3.09375,8.3751 1.85415,1.9375 4.16665,2.9062 6.9375,2.9062 2.06248,0 3.82289,-0.5417 5.28125,-1.625 1.45831,-1.0833 2.61456,-2.8125 3.46875,-5.1875 l 0,0 z m -18.46875,-9.0938 18.53125,0 c -0.25003,-2.7916 -0.95836,-4.8854 -2.125,-6.2812 -1.79169,-2.1667 -4.1146,-3.25 -6.96875,-3.25 -2.58335,0 -4.75522,0.8646 -6.51562,2.5937 -1.76043,1.7292 -2.73439,4.0417 -2.92188,6.9375 l 0,0 z m 29.125,9.8751 5.5625,-0.875 c 0.31249,2.2291 1.18228,3.9375 2.60938,5.125 1.42707,1.1875 3.42186,1.7812 5.98437,1.7812 2.58331,0 4.49998,-0.526 5.75,-1.5781 1.24998,-1.0521 1.87498,-2.2865 1.875,-3.7031 -2e-5,-1.2709 -0.55211,-2.2709 -1.65625,-3 -0.77085,-0.5 -2.68752,-1.1355 -5.75,-1.9063 -4.12501,-1.0417 -6.98438,-1.9427 -8.57812,-2.7031 -1.59376,-0.7604 -2.80209,-1.8125 -3.625,-3.1563 -0.82292,-1.3437 -1.23438,-2.8281 -1.23438,-4.4531 0,-1.4792 0.33854,-2.8489 1.01563,-4.1094 0.67707,-1.2604 1.59895,-2.3072 2.76562,-3.1406 0.87499,-0.6458 2.0677,-1.1927 3.57813,-1.6406 1.5104,-0.4479 3.13019,-0.6719 4.85937,-0.6719 2.60415,0 4.8906,0.375 6.85938,1.125 1.96872,0.75 3.42184,1.7656 4.35937,3.0469 0.93747,1.2812 1.58331,2.9948 1.9375,5.1406 l -5.5,0.75 c -0.25002,-1.7083 -0.97398,-3.0417 -2.17187,-4 -1.19794,-0.9583 -2.89065,-1.4375 -5.07813,-1.4375 -2.58335,0 -4.42709,0.4271 -5.53125,1.2812 -1.10418,0.8542 -1.65626,1.8542 -1.65625,3 -10e-6,0.7292 0.22916,1.3855 0.6875,1.9688 0.45832,0.6042 1.17707,1.1042 2.15625,1.5 0.56249,0.2083 2.21874,0.6875 4.96875,1.4375 3.97915,1.0625 6.75519,1.9323 8.32813,2.6094 1.57289,0.6771 2.80726,1.6614 3.70312,2.9531 0.8958,1.2917 1.34372,2.8958 1.34375,4.8125 -3e-5,1.875 -0.5469,3.6406 -1.64062,5.2969 -1.09378,1.6562 -2.67191,2.9375 -4.73438,3.8437 -2.06252,0.9063 -4.39585,1.3594 -7,1.3594 -4.31251,0 -7.59897,-0.8958 -9.85937,-2.6875 -2.26043,-1.7917 -3.70313,-4.4479 -4.32813,-7.9687 l 0,0 z" />
  </g>
  <text
     xml:space="preserve"
     style="font-size:36;font-style:normal;font-weight:normal;fill:#000000;fill-opacity:1;stroke:none;font-family:Arial;-inkscape-font-specification:Arial"
     x="363.11884"
     y="611.09875"
     id="text2863"><tspan
       sodipodi:role="line"
       id="tspan2865"
       x="363.11884"
       y="611.09875">Front side</tspan></text>
  <text
     xml:space="preserve"
     style="font-size:36px;font-style:normal;font-weight:normal;fill:#000000;fill-opacity:1;stroke:none;font-family:Arial;-inkscape-font-specification:Arial"
     x="230.9068"
     y="290.90894"
     id="text2863-1"><tspan
       sodipodi:role="line"
       id="tspan2865-7"
       x="230.9068"
       y="290.90894">Back side</tspan></text>
</svg>
